# xmcd
#
# Track frame offsets: 
#        150
#        11310
#        22495
#        34320
#        48160
#        59812
#        70810
#        89285
#        105855
#        119355
#        129585
#        139730
#        153460
#        166660
#        179260
#        192460
#        204310
#        214210
#
# Disc length: 3050 seconds
#
# Revision: 3
# Processed by: cddbd v1.5.2PL0 Copyright (c) Steve Scherf et al.
# Submitted via: ExactAudioCopyFreeDBPlugin 1.0
#
DISCID=fe0be812
DTITLE=The Country Allstars - It's Country Time
DYEAR=1995
DGENRE=Country
TTITLE0=Six Days On The Road
TTITLE1=Older Men Make Better Lovers
TTITLE2=Tennessee Teardrops
TTITLE3=Take Me Home Country Roads
TTITLE4=On Top Of Old Smoky
TTITLE5=Some Broken Hearts Never Mend
TTITLE6=Yesterday's Memories
TTITLE7=Trains Come And Go
TTITLE8=O Lonesome Me
TTITLE9=The Yellow Rose Of Texas
TTITLE10=Carry Me Back To Old Virginny
TTITLE11=Play Me A Love Song Tonight
TTITLE12=I May Fall Again For Somebody New
TTITLE13=My Sunnie Overgrown Country Town
TTITLE14=Home, Home On The Range
TTITLE15=Oh Susanna
TTITLE16=My Darling Clementine
TTITLE17=A Game I Can't Afford To Lose
EXTD=Instrumental
EXTT0=
EXTT1=
EXTT2=
EXTT3=
EXTT4=
EXTT5=
EXTT6=
EXTT7=
EXTT8=
EXTT9=
EXTT10=
EXTT11=
EXTT12=
EXTT13=
EXTT14=
EXTT15=
EXTT16=
EXTT17=
PLAYORDER=
